<?xml version="1.0" standalone="no"?>
<!DOCTYPE svg PUBLIC "-//W3C//DTD SVG 20010904//EN"
 "http://www.w3.org/TR/2001/REC-SVG-20010904/DTD/svg10.dtd">
<svg version="1.0" xmlns="http://www.w3.org/2000/svg"
 width="512.000000pt" height="512.000000pt" viewBox="0 0 512.000000 512.000000"
 preserveAspectRatio="xMidYMid meet">

<g transform="translate(0.000000,512.000000) scale(0.100000,-0.100000)"
fill="#000000" stroke="none">
<path d="M2626 4869 c-62 -15 -153 -68 -197 -116 -22 -24 -55 -74 -72 -111
-32 -67 -32 -68 -35 -253 l-4 -186 -111 -21 c-344 -65 -508 -189 -525 -398 -4
-55 -1 -71 23 -119 63 -131 227 -211 592 -290 21 -5 21 -7 25 -317 l3 -313 32
-88 c17 -48 46 -113 64 -144 48 -80 156 -191 233 -238 l65 -40 1 -97 0 -98
-133 -100 -134 -100 -553 0 -553 0 71 35 c77 39 109 71 150 149 22 43 26 64
27 137 l0 85 51 23 c74 32 116 71 155 143 31 57 34 70 34 148 0 79 -3 90 -36
150 -38 70 -104 128 -167 149 l-37 13 0 86 c-1 75 -5 94 -28 140 -51 98 -137
162 -240 177 l-47 7 0 116 0 115 46 49 c25 27 60 79 77 116 l32 67 0 175 0
175 -32 67 c-43 92 -101 151 -189 195 -64 31 -85 36 -166 41 l-93 4 3 134 c4
131 4 133 -22 158 l-25 26 -266 0 c-166 0 -274 -4 -286 -10 -11 -6 -59 -91
-109 -191 l-90 -179 2 -1498 3 -1498 37 -76 c45 -91 103 -147 196 -191 l67
-32 648 -3 647 -3 0 -375 0 -375 25 -24 24 -25 1551 0 1551 0 25 25 25 25 -3
623 -3 623 -37 76 c-45 91 -103 147 -196 191 l-67 32 -435 3 -435 3 -132 100
-133 99 0 98 0 97 52 30 c119 69 239 210 294 345 46 113 54 188 54 486 l0 274
23 5 c282 62 406 108 514 194 74 58 107 130 101 215 -17 208 -182 333 -525
398 l-111 21 -4 186 c-3 185 -3 186 -35 253 -44 93 -100 151 -191 196 l-76 37
-475 2 c-268 1 -493 -3 -515 -8z m968 -161 c55 -16 138 -99 154 -154 7 -24 12
-102 12 -188 l0 -146 -147 7 c-82 5 -303 8 -493 8 -190 0 -411 -3 -492 -8
l-148 -7 0 146 c0 86 5 164 12 188 15 51 99 137 148 153 52 16 899 17 954 1z
m-2794 -203 c0 -46 -4 -60 -25 -80 -24 -25 -26 -25 -215 -25 l-190 0 40 80 40
80 175 0 175 0 0 -55z m314 -277 c55 -16 138 -99 154 -154 16 -53 16 -255 0
-308 -16 -55 -99 -138 -154 -154 -29 -8 -151 -12 -418 -12 l-376 0 0 320 0
320 376 0 c267 0 389 -4 418 -12z m2451 -158 c417 -23 657 -75 764 -165 38
-32 70 -96 71 -137 0 -80 -180 -173 -430 -223 l-85 -17 -45 42 c-97 89 -289
157 -504 179 -400 40 -776 -32 -936 -179 l-45 -42 -85 17 c-250 50 -430 143
-430 223 1 41 33 105 71 137 104 87 357 143 741 164 212 12 708 12 913 1z
m-111 -500 c108 -23 222 -70 274 -114 l32 -28 0 -113 0 -114 -37 5 c-219 30
-387 95 -548 214 -70 51 -185 159 -185 173 0 18 351 1 464 -23z m-664 -6 c0
-4 -16 -39 -35 -79 -39 -83 -136 -181 -223 -228 l-52 -28 0 99 c0 100 0 100
31 127 43 35 100 64 184 91 74 24 95 28 95 18z m-1670 -221 l-1 -108 -39 -27
-40 -28 -40 28 -39 27 -1 102 0 102 73 4 c39 1 75 4 80 5 4 1 7 -46 7 -105z
m-320 18 l0 -79 -47 -7 c-103 -15 -188 -78 -240 -177 -24 -46 -28 -65 -28
-139 l0 -87 -32 -12 c-18 -6 -55 -26 -83 -45 l-50 -34 0 330 0 329 240 0 240
0 0 -79z m2297 -83 c34 -25 106 -68 160 -96 144 -74 257 -107 472 -138 l34 -5
-6 -137 c-3 -104 -10 -151 -26 -195 -63 -177 -192 -303 -371 -363 -81 -28
-400 -28 -480 0 -156 53 -274 154 -340 290 -48 99 -62 178 -58 319 l3 109 56
23 c130 53 251 153 326 272 l46 73 61 -54 c34 -29 89 -73 123 -98z m-2234
-172 c103 -43 128 -177 48 -257 -112 -113 -296 -12 -267 146 18 94 128 150
219 111z m480 0 c103 -43 128 -177 48 -257 -112 -113 -296 -12 -267 146 18 94
128 150 219 111z m-720 -400 c103 -43 128 -177 48 -257 -65 -65 -157 -65 -222
0 -124 123 13 325 174 257z m480 0 c104 -43 128 -175 47 -256 -66 -66 -156
-67 -221 -1 -124 123 13 325 174 257z m480 0 c104 -43 128 -175 47 -256 -66
-66 -156 -67 -221 -1 -124 123 13 325 174 257z m-1130 -446 l32 -12 0 -87 c1
-79 3 -91 35 -149 38 -72 80 -111 154 -143 l51 -23 0 -85 c0 -102 23 -160 93
-229 65 -65 120 -87 222 -87 70 0 94 4 135 24 65 33 126 95 155 159 l24 52
203 0 203 0 0 -240 0 -240 -616 0 c-455 0 -627 3 -658 12 -55 16 -138 99 -154
154 -9 30 -12 171 -12 507 l0 466 50 -34 c28 -19 65 -39 83 -45z m410 46 c104
-43 128 -175 47 -256 -66 -66 -156 -67 -221 -1 -124 123 13 325 174 257z m480
0 c103 -43 128 -177 48 -257 -65 -65 -157 -65 -222 0 -124 123 13 325 174 257z
m1777 -141 c91 0 182 3 203 7 l37 7 0 -69 0 -69 -120 -91 -120 -91 -120 91
-120 91 0 69 0 69 38 -7 c20 -4 111 -7 202 -7z m-2017 -259 c104 -43 128 -175
47 -256 -66 -66 -156 -67 -221 -1 -124 123 13 325 174 257z m1801 -84 l104
-78 -69 -92 c-38 -51 -72 -92 -75 -92 -4 0 -62 44 -130 99 l-124 99 93 70 c50
39 93 71 95 71 1 1 49 -34 106 -77z m631 7 l95 -71 -124 -99 c-68 -55 -126
-99 -130 -99 -3 0 -37 41 -75 92 l-69 92 101 77 c56 43 103 78 105 78 1 1 45
-31 97 -70z m-1295 -524 l0 -376 -25 -24 c-23 -24 -31 -25 -135 -25 -104 0
-112 1 -135 25 l-25 24 0 376 0 375 160 0 160 0 0 -375z m412 215 c205 -164
231 -178 271 -147 9 6 55 64 102 127 48 63 90 115 95 115 5 0 47 -52 95 -115
47 -63 93 -121 102 -127 40 -31 66 -17 271 147 143 115 207 160 226 160 l26 0
0 -240 0 -240 -720 0 -720 0 0 240 0 240 26 0 c19 0 83 -45 226 -160z m1668
-215 l0 -376 -25 -24 c-23 -24 -31 -25 -135 -25 -104 0 -112 1 -135 25 l-25
24 0 376 0 375 160 0 160 0 0 -375z m314 363 c55 -16 138 -99 154 -154 9 -30
12 -186 12 -578 l0 -536 -160 0 -160 0 0 640 0 640 56 0 c31 0 75 -5 98 -12z
m-794 -684 c0 -87 18 -133 75 -190 67 -67 105 -77 274 -73 l131 4 0 -162 0
-163 -1200 0 -1200 0 0 163 0 162 134 -3 c171 -5 216 8 279 78 49 55 67 103
67 184 l0 56 720 0 720 0 0 -56z"/>
</g>
</svg>
