<?xml version="1.0" standalone="no"?>
<!DOCTYPE svg PUBLIC "-//W3C//DTD SVG 20010904//EN"
 "http://www.w3.org/TR/2001/REC-SVG-20010904/DTD/svg10.dtd">
<svg version="1.0" xmlns="http://www.w3.org/2000/svg"
 width="512.000000pt" height="512.000000pt" viewBox="0 0 512.000000 512.000000"
 preserveAspectRatio="xMidYMid meet">

<g transform="translate(0.000000,512.000000) scale(0.100000,-0.100000)"
fill="#000000" stroke="none">
<path d="M589 5101 c-17 -13 -23 -29 -23 -56 0 -61 27 -75 140 -75 l94 0 0
-45 0 -45 -375 0 -376 0 -24 -25 c-25 -24 -25 -26 -25 -210 0 -184 0 -186 25
-210 l24 -25 376 0 375 0 0 -49 0 -48 -59 -22 c-129 -47 -221 -154 -250 -289
-7 -33 -11 -170 -11 -356 0 -292 1 -304 21 -330 l20 -26 355 0 c341 0 355 1
374 20 19 19 20 33 20 348 0 351 -4 380 -54 467 -45 77 -154 158 -238 179 -26
6 -28 10 -28 56 l0 50 485 0 485 0 0 -49 0 -48 -57 -22 c-82 -30 -148 -82
-193 -151 -61 -96 -65 -124 -65 -486 0 -302 1 -323 19 -343 19 -21 26 -21 373
-21 342 0 354 1 373 20 20 20 21 30 18 368 l-3 347 -27 57 c-48 102 -146 189
-245 219 -43 12 -43 12 -43 61 l0 48 490 0 490 0 0 -48 c0 -49 0 -49 -42 -61
-100 -30 -198 -117 -246 -219 l-27 -57 -3 -347 c-3 -338 -2 -348 18 -368 19
-19 31 -20 373 -20 347 0 354 0 373 21 18 20 19 41 19 343 0 362 -4 390 -65
486 -45 69 -111 121 -192 151 l-58 22 0 48 0 49 485 0 485 0 0 -50 c0 -46 -2
-50 -27 -56 -85 -21 -194 -102 -239 -179 -50 -87 -54 -116 -54 -467 0 -315 1
-329 20 -348 19 -19 33 -20 374 -20 l355 0 20 26 c20 26 21 38 21 330 0 186
-4 323 -11 356 -29 135 -121 242 -250 289 l-59 22 0 48 0 49 375 0 376 0 24
25 c25 24 25 26 25 210 0 184 0 186 -25 210 l-24 25 -376 0 -375 0 0 45 0 45
94 0 c77 0 98 3 117 19 32 26 32 86 0 112 -21 18 -44 19 -286 19 -250 0 -264
-1 -289 -21 -36 -28 -36 -80 0 -108 23 -18 41 -21 120 -21 l94 0 0 -45 0 -45
-485 0 -485 0 0 45 0 45 93 0 c98 1 120 9 135 51 11 28 -1 66 -26 85 -13 10
-80 13 -278 14 -249 0 -262 -1 -288 -21 -34 -27 -36 -77 -3 -107 21 -19 34
-22 120 -22 l97 0 0 -45 0 -45 -490 0 -490 0 0 45 0 45 98 0 c90 0 100 2 120
23 31 33 29 80 -4 106 -26 20 -39 21 -288 21 -198 -1 -265 -4 -278 -14 -25
-19 -37 -57 -26 -85 15 -42 37 -50 136 -51 l92 0 0 -45 0 -45 -485 0 -485 0 0
45 0 45 94 0 c79 0 97 3 120 21 36 28 36 80 0 108 -25 20 -39 21 -289 21 -242
0 -265 -1 -286 -19z m4381 -456 l0 -85 -2410 0 -2410 0 0 85 0 85 2410 0 2410
0 0 -85z m-4022 -490 c66 -20 119 -66 148 -130 23 -48 24 -58 24 -317 l0 -268
-245 0 -245 0 0 253 c0 150 4 268 11 291 23 85 95 156 177 175 55 13 73 13
130 -4z m1121 -1 c62 -18 127 -73 152 -129 17 -36 19 -70 19 -312 l0 -273
-246 0 -245 0 3 268 c3 247 5 270 24 312 34 72 94 123 169 141 47 11 68 10
124 -7z m1160 -14 c50 -25 90 -67 115 -120 19 -42 21 -65 24 -312 l3 -268
-245 0 -246 0 0 273 c0 244 2 276 19 312 56 121 212 176 330 115z m1120 2 c45
-21 92 -69 117 -118 17 -35 19 -66 22 -311 l3 -273 -245 0 -246 0 0 268 c0
260 1 268 24 317 31 65 72 103 138 127 60 21 130 17 187 -10z"/>
<path d="M1250 2947 c-38 -19 -50 -54 -50 -149 0 -79 -2 -88 -18 -88 -27 0
-55 -36 -55 -70 0 -34 28 -70 55 -70 17 0 18 -14 18 -273 l0 -272 -86 -85
c-97 -97 -127 -142 -143 -218 -7 -35 -11 -256 -11 -652 l0 -600 -455 0 -456 0
-24 -25 c-25 -24 -25 -26 -25 -210 0 -184 0 -186 25 -210 l24 -25 2134 0 2134
0 27 21 c36 28 36 80 0 108 l-27 21 -2083 0 -2084 0 0 85 0 85 2410 0 2410 0
0 -85 0 -85 -172 0 c-126 -1 -178 -4 -190 -14 -25 -19 -37 -57 -26 -85 18 -48
28 -50 266 -51 l223 0 24 25 c25 24 25 26 25 210 0 184 0 186 -25 210 l-24 25
-456 0 -455 0 0 600 c0 396 -4 617 -11 652 -16 76 -46 121 -143 218 l-86 85 0
272 c0 259 1 273 18 273 27 0 55 36 55 70 0 34 -28 70 -54 70 -15 0 -18 13
-21 100 -5 145 -4 144 -205 148 -255 5 -263 1 -263 -143 l0 -95 -35 -14 c-61
-26 -61 -106 0 -132 l35 -14 0 -261 0 -262 -99 -102 c-152 -159 -141 -91 -141
-840 l0 -625 -85 0 -84 0 -3 627 -3 628 -28 59 c-19 41 -55 88 -117 151 l-90
91 0 272 c0 258 1 272 18 272 29 0 52 33 52 72 0 37 -24 68 -52 68 -13 0 -16
18 -20 100 -6 149 1 145 -238 145 -239 0 -232 4 -238 -145 -4 -87 -7 -100 -22
-100 -27 0 -50 -33 -50 -72 0 -37 24 -68 53 -68 15 0 17 -24 17 -272 l0 -272
-90 -91 c-62 -63 -98 -110 -117 -151 l-28 -59 -3 -627 -3 -628 -84 0 -85 0 0
625 c0 749 11 681 -141 840 l-99 102 0 262 0 261 35 14 c37 16 52 48 41 92 -4
16 -19 30 -41 40 l-35 14 0 91 c0 103 -7 123 -51 138 -45 16 -337 14 -369 -2z
m270 -182 l0 -45 -85 0 -85 0 0 38 c0 21 3 42 7 45 3 4 42 7 85 7 l78 0 0 -45z
m1120 0 l0 -45 -85 0 -85 0 0 38 c0 21 3 42 7 45 3 4 42 7 85 7 l78 0 0 -45z
m1128 -2 l3 -43 -85 0 -86 0 0 45 0 46 83 -3 82 -3 3 -42z m-2246 -497 l3
-295 101 -103 c56 -57 109 -117 118 -135 9 -18 16 -56 16 -88 l0 -55 -325 0
-325 0 0 45 c0 73 24 113 136 226 l104 106 0 297 0 296 85 0 84 0 3 -294z
m1128 -4 l0 -297 96 -95 c119 -119 134 -143 137 -217 l2 -58 -325 0 -325 0 2
58 c3 74 18 98 137 217 l96 95 0 297 0 298 90 0 90 0 0 -298z m1120 2 l0 -297
104 -106 c112 -113 136 -153 136 -226 l0 -45 -325 0 -325 0 0 55 c0 32 7 70
16 88 9 18 62 78 118 135 l101 103 3 295 3 294 84 0 85 0 0 -296z m-2010
-1149 l0 -325 -325 0 -325 0 0 325 0 325 325 0 325 0 0 -325z m1128 3 l-3
-323 -325 0 -325 0 -3 323 -2 322 330 0 330 0 -2 -322z m1122 -3 l0 -325 -325
0 -325 0 0 325 0 325 325 0 325 0 0 -325z m-2250 -560 l0 -85 -325 0 -325 0 0
85 0 85 325 0 325 0 0 -85z m1130 0 l0 -85 -330 0 -330 0 0 85 0 85 330 0 330
0 0 -85z m1120 0 l0 -85 -325 0 -325 0 0 85 0 85 325 0 325 0 0 -85z"/>
</g>
</svg>
