<?xml version="1.0" standalone="no"?>
<!DOCTYPE svg PUBLIC "-//W3C//DTD SVG 20010904//EN"
 "http://www.w3.org/TR/2001/REC-SVG-20010904/DTD/svg10.dtd">
<svg version="1.0" xmlns="http://www.w3.org/2000/svg"
 width="512.000000pt" height="512.000000pt" viewBox="0 0 512.000000 512.000000"
 preserveAspectRatio="xMidYMid meet">

<g transform="translate(0.000000,512.000000) scale(0.100000,-0.100000)"
fill="#000000" stroke="none">
<path d="M1057 5040 c-68 -18 -133 -58 -190 -119 -165 -178 -190 -443 -62
-655 19 -32 35 -61 35 -64 0 -3 -46 -2 -102 1 -164 10 -270 50 -365 140 -97
92 -162 230 -182 390 -10 86 -26 112 -71 122 -32 7 -84 -15 -94 -40 -20 -54 4
-203 53 -332 130 -337 438 -498 846 -442 78 11 81 10 129 -17 48 -27 49 -28
25 -37 -122 -47 -196 -94 -273 -171 -139 -139 -194 -263 -203 -451 -3 -61 0
-130 5 -155 12 -49 6 -59 -38 -60 -14 0 -62 -13 -108 -29 -200 -70 -356 -228
-428 -436 -25 -72 -28 -94 -28 -210 0 -116 3 -138 28 -210 72 -208 228 -366
428 -436 46 -16 94 -29 108 -29 44 -1 50 -11 39 -60 -6 -25 -9 -94 -6 -155 7
-184 65 -314 201 -451 68 -68 97 -89 176 -127 95 -45 166 -67 216 -67 23 0 25
-3 19 -22 -16 -53 -17 -233 -1 -307 42 -198 183 -376 374 -471 93 -46 174 -64
297 -64 88 0 125 4 185 23 122 37 207 87 290 171 135 136 201 286 204 465 0
55 -3 123 -7 150 l-8 51 63 11 c240 42 448 226 523 465 31 99 41 215 26 303
-13 75 -9 84 39 85 45 0 189 57 255 100 187 122 315 355 315 575 0 132 -58
303 -141 412 l-40 53 48 56 48 56 25 -34 c180 -239 499 -391 628 -300 53 39
120 181 148 319 16 76 15 264 -2 334 l-6 26 68 -10 c167 -24 432 51 526 150
60 63 62 120 8 231 -85 177 -234 363 -379 473 -83 63 -243 142 -341 168 -223
60 -445 45 -645 -44 l-51 -22 -35 29 c-59 49 -161 106 -244 134 -71 25 -95 28
-205 28 -110 0 -135 -3 -210 -28 -47 -15 -119 -46 -160 -67 -74 -38 -98 -55
-260 -177 -206 -156 -359 -219 -589 -242 -202 -21 -534 24 -705 95 l-38 16 60
39 c88 56 136 103 191 186 70 104 94 183 89 292 -4 112 -42 199 -122 276 -95
93 -264 145 -379 116z m187 -190 c89 -38 145 -124 146 -221 0 -120 -116 -280
-253 -347 -35 -18 -74 -32 -85 -32 -47 0 -130 135 -152 245 -21 110 19 241 98
318 70 68 147 80 246 37z m2101 -510 c33 -11 77 -32 99 -46 l39 -26 -60 -32
c-89 -48 -151 -96 -235 -184 -72 -75 -178 -231 -178 -260 0 -9 -21 5 -49 31
-107 100 -222 158 -365 183 -44 8 -81 16 -82 17 -2 2 25 22 60 45 35 23 103
73 152 112 99 78 213 139 319 170 88 25 211 21 300 -10z m940 -87 c87 -19 217
-78 298 -137 122 -86 262 -257 341 -413 l26 -51 -43 -25 c-147 -87 -338 -97
-498 -26 -84 36 -103 36 -140 0 -36 -37 -36 -52 1 -135 57 -125 76 -281 49
-408 -15 -72 -68 -198 -83 -198 -25 0 -129 40 -182 70 -118 68 -224 194 -279
333 -30 73 -45 87 -98 87 -43 0 -69 -28 -91 -97 -24 -73 -83 -159 -152 -222
-58 -54 -170 -115 -230 -127 -29 -5 -32 -3 -47 35 -100 249 -94 591 15 804 79
156 231 301 389 371 l57 25 29 -42 c89 -125 166 -289 218 -465 37 -124 56
-152 104 -152 34 0 70 25 82 57 26 70 -114 434 -237 617 -39 58 -39 57 57 87
132 40 266 44 414 12z m-2855 -429 c231 -65 395 -315 362 -549 -14 -107 -26
-125 -92 -142 -136 -34 -312 -160 -380 -272 -14 -22 -30 -41 -35 -41 -6 0 -31
29 -56 64 -26 35 -75 87 -110 116 -67 56 -198 124 -262 135 -50 10 -63 24 -76
85 -53 248 84 501 321 592 104 40 214 44 328 12z m546 -35 c-31 -33 -63 -74
-71 -90 -9 -16 -17 -29 -20 -29 -2 0 -19 21 -37 48 -18 26 -49 65 -69 87 l-37
40 145 2 144 2 -55 -60z m669 29 c106 -35 206 -112 264 -203 26 -41 28 -49 19
-92 -12 -59 -15 -272 -5 -333 l7 -45 -67 -23 c-38 -13 -92 -38 -122 -55 -66
-37 -186 -150 -221 -206 -14 -22 -30 -41 -35 -41 -6 0 -31 29 -56 64 -26 35
-75 87 -110 116 -66 55 -197 123 -260 135 -53 10 -60 17 -75 81 -41 174 9 346
136 475 140 142 338 190 525 127z m-1852 -843 c175 -37 323 -172 378 -344 25
-78 29 -221 7 -290 -13 -42 -14 -44 -93 -70 -152 -51 -265 -131 -349 -246
l-50 -67 -58 6 c-301 34 -509 322 -447 618 34 161 169 320 319 373 101 37 188
43 293 20z m1206 0 c175 -42 314 -170 372 -343 27 -78 30 -219 8 -291 -14 -42
-15 -44 -94 -70 -151 -51 -265 -131 -349 -245 -26 -36 -51 -66 -55 -66 -4 0
-15 14 -24 30 -67 113 -229 235 -368 278 l-88 26 -15 56 c-45 159 2 342 120
470 132 142 309 198 493 155z m991 -72 c41 -127 90 -173 182 -173 51 0 169 38
237 76 l46 25 28 -33 c45 -53 95 -167 108 -245 42 -257 -133 -517 -392 -578
-106 -25 -119 -22 -158 35 -47 69 -148 162 -223 204 -35 19 -97 45 -139 57
-72 21 -77 24 -88 58 -19 59 -25 175 -12 243 32 164 160 320 310 379 73 29 77
27 101 -48z m-1581 -788 c252 -67 420 -316 382 -564 -16 -104 -24 -117 -67
-126 -146 -27 -318 -146 -409 -283 l-28 -42 -51 6 c-370 43 -577 432 -404 757
62 115 190 217 319 251 70 19 190 20 258 1z m1200 0 c203 -54 353 -223 383
-430 21 -151 -33 -314 -142 -425 -88 -89 -187 -137 -322 -155 l-46 -6 -33 48
c-60 87 -156 170 -249 217 -48 24 -111 49 -140 57 -46 12 -55 18 -68 49 -20
49 -27 183 -13 253 38 181 191 343 372 391 70 19 190 20 258 1z m-588 -861
c258 -76 419 -336 366 -590 -41 -191 -182 -344 -366 -398 -174 -51 -400 14
-519 150 -245 278 -131 711 218 831 81 28 219 31 301 7z"/>
<path d="M383 2548 c-77 -37 -39 -224 65 -319 79 -74 215 -117 272 -87 32 17
54 62 46 94 -10 39 -39 61 -93 68 -28 3 -66 16 -84 29 -40 26 -79 98 -79 143
0 62 -68 101 -127 72z"/>
<path d="M963 1674 c-23 -23 -25 -31 -20 -84 15 -168 155 -306 316 -311 83 -3
127 47 101 115 -10 28 -61 56 -100 56 -36 0 -97 38 -120 74 -11 19 -25 59 -29
87 -10 62 -37 89 -88 89 -23 0 -42 -8 -60 -26z"/>
<path d="M1603 843 c-13 -2 -32 -16 -44 -31 -44 -56 -2 -209 81 -292 75 -75
224 -122 285 -90 25 13 45 49 45 81 0 32 -53 79 -90 79 -81 0 -155 67 -166
151 -10 75 -51 113 -111 102z"/>
</g>
</svg>
