<?xml version="1.0" standalone="no"?>
<!DOCTYPE svg PUBLIC "-//W3C//DTD SVG 20010904//EN"
 "http://www.w3.org/TR/2001/REC-SVG-20010904/DTD/svg10.dtd">
<svg version="1.0" xmlns="http://www.w3.org/2000/svg"
 width="512.000000pt" height="512.000000pt" viewBox="0 0 512.000000 512.000000"
 preserveAspectRatio="xMidYMid meet">

<g transform="translate(0.000000,512.000000) scale(0.100000,-0.100000)"
fill="#000000" stroke="none">
<path d="M1455 4760 c-316 -22 -618 -71 -788 -128 -100 -34 -190 -85 -218
-124 -55 -76 -262 -895 -244 -965 11 -45 83 -55 104 -15 5 9 26 100 46 202 21
102 39 187 41 189 1 1 27 -8 56 -22 29 -13 85 -35 123 -47 39 -13 71 -23 72
-24 1 -1 -4 -26 -12 -56 -42 -156 -104 -546 -125 -790 -16 -186 -21 -230 -26
-230 -18 0 -196 64 -222 80 -31 19 -33 24 -28 58 3 20 8 72 11 114 6 69 4 79
-14 97 -42 42 -88 19 -101 -50 -19 -99 -33 -481 -27 -709 18 -647 135 -1175
371 -1682 85 -182 364 -269 961 -299 238 -13 795 -6 980 11 428 39 698 130
763 257 l19 37 13 -39 c17 -51 76 -114 128 -137 143 -64 318 31 338 183 6 46
8 49 37 49 91 0 194 77 217 161 7 24 14 50 16 56 2 7 16 13 31 13 124 0 236
102 246 225 l4 48 54 14 c167 43 239 238 136 374 -18 23 -36 47 -41 54 -6 8
-2 23 13 43 86 122 17 313 -130 356 -65 20 -83 20 -143 2 -46 -14 -47 -14 -60
12 -8 15 -23 36 -35 46 -12 11 -21 22 -21 26 0 4 14 38 31 74 l31 66 25 -50
c13 -27 46 -68 71 -91 59 -53 179 -111 242 -117 41 -4 49 -1 64 19 9 13 16 33
16 45 0 21 2 21 38 8 110 -39 229 9 219 89 -2 15 11 23 55 37 71 22 146 69
192 121 39 42 46 80 22 115 -19 27 -134 79 -223 102 -38 10 -68 22 -66 28 2 6
-1 23 -7 38 -19 52 -117 71 -213 42 l-47 -14 0 29 c0 33 -34 69 -65 69 -39 0
-147 -64 -204 -120 -49 -48 -94 -121 -115 -183 -5 -14 -16 0 -48 60 -41 75
-43 81 -41 161 2 77 1 83 -22 98 -48 32 -89 -5 -99 -91 -8 -63 12 -142 59
-230 19 -37 35 -77 35 -90 0 -32 -26 -101 -50 -136 -19 -25 -27 -29 -71 -29
-28 0 -63 -7 -79 -15 -29 -15 -29 -15 -51 25 -19 34 -85 90 -120 102 -5 2 -13
116 -19 253 -17 420 -53 728 -136 1145 -64 325 -173 739 -209 794 -69 105
-381 196 -835 241 -185 19 -739 27 -925 15z m918 -134 c179 -18 368 -49 497
-82 101 -25 238 -86 247 -110 9 -23 -17 -45 -92 -80 -347 -160 -1372 -210
-2025 -98 -254 43 -460 119 -460 170 0 19 81 64 175 95 153 51 447 99 740 119
183 12 740 4 918 -14z m-1668 -425 c486 -149 1473 -168 2087 -42 115 24 248
66 310 97 27 13 51 24 55 25 4 0 22 -51 39 -113 35 -127 35 -127 -35 -163
-124 -62 -369 -114 -711 -151 -197 -21 -813 -30 -1035 -15 -442 30 -793 97
-932 177 -23 13 -44 28 -47 33 -5 8 48 213 59 232 3 4 29 -6 57 -21 29 -16 98
-42 153 -59z m2604 -523 c43 -219 82 -473 105 -688 l14 -135 -22 -21 c-20 -18
-133 -60 -207 -78 l-27 -6 -7 93 c-18 249 -60 561 -106 778 -49 233 -52 203
27 228 38 11 92 31 119 44 47 22 50 23 57 6 4 -10 25 -110 47 -221z m-2379 92
c69 -11 139 -20 157 -20 17 0 34 -3 36 -7 3 -5 -3 -93 -13 -198 -23 -238 -38
-458 -46 -692 l-7 -183 -31 0 c-39 0 -165 15 -308 36 l-108 16 6 77 c10 138
35 364 55 506 20 139 85 471 95 487 3 5 13 6 22 4 10 -3 73 -15 142 -26z
m1985 -42 c31 -139 66 -334 90 -513 25 -188 52 -482 44 -489 -6 -6 -265 -43
-360 -52 -74 -6 -76 -6 -82 17 -4 13 -7 70 -7 125 0 168 -24 537 -56 865 l-7
66 74 8 c41 4 119 15 174 25 55 10 103 18 107 19 3 1 14 -32 23 -71z m-1342
-15 l197 -6 0 -540 0 -540 -177 7 c-98 3 -231 9 -295 12 l-118 7 0 76 c0 179
50 912 67 980 6 23 8 23 67 17 34 -3 150 -9 259 -13z m855 -90 c31 -288 67
-948 53 -965 -5 -6 -434 -28 -545 -28 l-46 0 0 540 0 540 133 1 c72 1 175 5
227 9 52 3 111 7 131 8 l36 2 11 -107z m-1977 -987 c498 -126 1521 -162 2274
-81 315 34 535 82 698 150 16 7 17 -3 17 -117 l0 -125 -67 -31 c-171 -78 -558
-143 -1028 -172 -209 -13 -826 -13 -1030 0 -513 33 -927 107 -1062 190 l-33
20 0 104 c0 142 -2 139 72 110 33 -13 104 -35 159 -48z m3876 -144 c32 -29 65
-23 108 18 24 23 90 60 107 60 2 0 2 -17 0 -38 -5 -48 23 -76 70 -72 86 8 195
-11 238 -40 38 -26 -106 -90 -200 -90 -75 0 -104 -23 -98 -76 2 -19 2 -34 1
-34 -13 0 -102 52 -113 65 -8 10 -23 21 -35 25 -13 6 3 9 50 9 87 1 115 17
115 66 0 24 -6 38 -19 45 -12 6 -92 10 -190 10 -94 0 -171 3 -171 8 0 13 41
76 68 105 l27 28 8 -33 c4 -18 20 -43 34 -56z m-3851 -248 c7 -1 14 -51 18
-131 21 -386 84 -751 185 -1070 34 -111 42 -106 -118 -65 l-104 27 -24 70
c-109 320 -178 684 -203 1070 -5 88 -10 165 -10 171 0 6 50 -5 123 -29 67 -22
127 -41 133 -43z m3879 64 c-32 -17 -45 -39 -45 -75 0 -18 -5 -33 -11 -33 -16
0 -76 48 -94 77 -24 36 -8 43 90 43 63 -1 76 -3 60 -12z m-991 -23 c-66 -39
-114 -129 -114 -211 0 -29 -3 -32 -37 -36 -21 -3 -40 -4 -42 -2 -2 2 0 50 4
107 l7 103 71 18 c39 10 85 25 102 32 48 21 53 16 9 -11z m-2569 -94 c83 -11
175 -23 206 -26 l55 -6 12 -232 c15 -281 43 -563 83 -836 16 -112 28 -205 26
-207 -5 -5 -316 34 -328 41 -12 8 -85 238 -119 378 -59 239 -99 518 -116 801
-6 113 -6 118 12 112 11 -3 87 -14 169 -25z m2258 -93 c-2 -68 -9 -145 -14
-173 -5 -27 -14 -92 -19 -143 -19 -199 -101 -568 -176 -793 l-35 -106 -112
-12 c-62 -6 -135 -14 -163 -17 l-51 -6 23 154 c46 303 94 820 94 1028 0 125 2
128 69 135 31 4 126 17 211 29 85 13 160 24 167 25 8 1 10 -32 6 -121z m493
96 c42 -20 64 -59 64 -113 0 -80 -88 -139 -162 -108 -97 41 -100 181 -5 222
42 19 62 18 103 -1z m-2028 -60 l252 -7 0 -645 0 -644 -122 7 c-204 11 -330
23 -338 32 -9 9 -52 288 -75 483 -19 157 -42 449 -51 644 l-7 149 44 -6 c24
-4 158 -10 297 -13z m958 -171 c-10 -308 -48 -692 -96 -991 -11 -67 -20 -125
-20 -127 0 -3 -106 -5 -235 -5 l-235 0 2 643 3 642 254 7 c140 4 261 9 270 11
9 3 27 5 40 6 l24 1 -7 -187z m1408 113 c108 -45 100 -193 -13 -227 -79 -24
-156 44 -148 129 5 48 27 78 72 98 38 17 49 17 89 0z m382 -147 c35 -33 48
-90 31 -131 -21 -49 -51 -70 -106 -76 -45 -4 -52 -1 -85 29 -50 45 -58 99 -24
149 13 19 35 41 48 48 36 19 106 9 136 -19z m-938 -25 c34 -22 37 -39 13 -73
-12 -16 -27 -55 -33 -86 -6 -31 -18 -59 -25 -62 -24 -9 -88 15 -114 43 -32 34
-34 120 -4 154 44 49 109 59 163 24z m267 -88 c41 -17 75 -68 75 -112 0 -75
-85 -137 -156 -114 -49 16 -84 63 -84 111 0 53 22 92 62 112 41 20 59 21 103
3z m372 -131 c14 -9 31 -33 40 -52 50 -122 -103 -225 -196 -132 -104 104 32
265 156 184z m339 -129 c29 -29 34 -41 34 -83 0 -55 -17 -86 -60 -108 -58 -30
-133 -6 -164 52 -13 25 -12 35 6 90 23 68 39 81 112 82 31 1 45 -6 72 -33z
m-956 -21 c75 -39 79 -160 8 -209 -29 -21 -102 -20 -134 0 -58 39 -71 122 -27
174 42 51 98 63 153 35z m378 -128 c18 -18 26 -40 30 -75 4 -46 2 -53 -31 -88
-32 -36 -40 -39 -87 -39 -47 0 -55 3 -87 39 -33 35 -35 42 -31 87 6 57 35 95
82 107 43 12 94 -2 124 -31z m-606 -150 l37 -38 -25 -52 c-26 -56 -32 -135
-14 -183 6 -15 9 -28 8 -30 -7 -7 -170 -45 -174 -41 -3 2 11 56 30 118 18 63
44 156 57 208 19 78 25 91 33 75 6 -10 28 -36 48 -57z m914 47 c67 -32 86
-126 38 -183 -45 -54 -122 -59 -173 -12 -59 55 -48 149 21 191 40 24 69 25
114 4z m-616 -143 c80 -58 60 -180 -35 -211 -75 -25 -155 34 -155 114 0 100
110 156 190 97z m365 -111 c81 -76 25 -210 -87 -210 -51 0 -106 49 -114 101
-8 45 16 98 54 122 38 25 114 18 147 -13z m-3075 -225 c168 -31 385 -59 645
-82 254 -22 1048 -25 1245 -5 175 18 372 49 460 72 41 10 75 18 77 16 9 -9
-79 -166 -103 -183 -109 -77 -302 -124 -639 -155 -189 -17 -949 -17 -1145 1
-237 21 -415 57 -529 108 -91 40 -120 68 -162 160 -22 46 -39 88 -39 94 0 7
11 9 28 5 15 -3 88 -17 162 -31z m2808 -29 c34 -31 37 -39 37 -86 0 -47 -3
-55 -39 -87 -36 -33 -42 -35 -89 -30 -69 6 -107 46 -107 113 0 56 12 79 53
104 51 31 101 26 145 -14z"/>
<path d="M2376 4545 c-88 -31 -129 -116 -88 -181 59 -94 259 -99 330 -9 15 19
22 42 22 73 0 38 -5 49 -34 77 -55 51 -151 68 -230 40z m132 -114 c17 -11 -6
-21 -48 -21 -16 0 -36 3 -45 6 -25 10 2 24 45 24 19 0 41 -4 48 -9z"/>
<path d="M313 2180 c-30 -12 -36 -41 -28 -127 10 -105 54 -144 106 -92 19 19
20 28 14 102 -5 70 -10 85 -31 105 -28 24 -29 25 -61 12z"/>
<path d="M358 1799 c-39 -22 -40 -41 -3 -221 66 -326 94 -399 149 -382 54 17
57 40 21 176 -13 51 -38 163 -55 248 -17 85 -37 160 -43 166 -19 18 -50 24
-69 13z"/>
</g>
</svg>
